#!OML:ASF H:\ManfredETheater\Project 1\Capture day 1\Session 1\subject.ASF
:FULLY-SPECIFIED
:DEGREES
61
root 3.45565 17.0947 18.3629 -108.547 -13.2449 -162.177
lowerback 37.0401 6.05168 3.54089
upperback 9.25075 6.55976 -3.00225
thorax -7.27828 2.5049 -7.39948
lowerneck -8.69969 -2.37291 1.077
upperneck -4.88155 -3.98816 -9.1924
head -0.274142 -2.32543 -3.23684
rclavicle -9.10434e-014 2.24627e-014
rhumerus 35.6012 3.11984 -71.7214
rradius 100.15
rwrist -0.626333
rhand -30.0447 1.13398
rfingers 7.12502
rthumb -3.36065 -28.8193
lclavicle -9.10434e-014 2.24627e-014
lhumerus 53.694 9.25048 63.1775
lradius 74.0473
lwrist 5.23708
lhand -35.3785 -1.54298
lfingers 7.12502
lthumb -8.51006 28.2655
rfemur -32.1511 -27.7169 37.5131
rtibia 73.6562
rfoot 13.3522 5.09111
rtoes -27.8267
lfemur -82.8962 -4.38137 4.74441
ltibia 46.2851
lfoot -10.1108 -0.0100403
ltoes 9.14111
62
root 3.42088 17.2516 17.8063 -106.442 -14.5465 -162.649
lowerback 36.751 6.00872 3.43611
upperback 9.18846 6.56467 -2.93073
thorax -7.26502 2.54147 -7.26226
lowerneck -8.60617 -2.54135 0.969474
upperneck -4.93641 -4.23022 -9.37745
head -0.324201 -2.44877 -3.28241
rclavicle -2.5842e-014 1.59028e-015
rhumerus 36.7844 2.33707 -70.6339
rradius 99.6203
rwrist 0.245987
rhand -30.6972 1.21331
rfingers 7.12502
rthumb -3.99078 -28.7291
lclavicle -2.5842e-014 1.59028e-015
lhumerus 56.7302 9.33701 63.2244
lradius 72.5459
lwrist 4.89226
lhand -35.7399 -1.76565
lfingers 7.12502
lthumb -8.85885 28.0284
rfemur -32.8856 -28.2541 37.7152
rtibia 76.3083
rfoot 12.7094 6.09245
rtoes -30.202
lfemur -81.9613 -4.24129 5.92581
ltibia 43.0136
lfoot -6.96261 -0.699141
ltoes 7.46348
63
root 3.38549 17.3951 17.2478 -104.18 -15.8213 -163.199
lowerback 36.2129 5.96957 3.32335
upperback 9.18534 6.57722 -2.85942
thorax -7.2255 2.58681 -7.12215
lowerneck -8.53348 -2.71439 0.87598
upperneck -4.93204 -4.47361 -9.56493
head -0.352405 -2.57405 -3.33247
rclavicle -8.46823e-014 1.13307e-014
rhumerus 37.7922 1.50182 -69.5158
rradius 99.0709
rwrist 1.00761
rhand -31.4641 1.25642
rfingers 7.12502
rthumb -4.7313 -28.6707
lclavicle -8.46823e-014 1.13307e-014
lhumerus 59.6821 9.34772 63.3106
lradius 71.0886
lwrist 4.27419
lhand -36.1668 -2.13903
lfingers 7.12502
lthumb -9.27074 27.6371
rfemur -33.5605 -28.5195 37.8606
rtibia 78.7165
rfoot 12.0768 7.14965
rtoes -32.6177
lfemur -81.274 -4.07795 7.22045
ltibia 39.8867
lfoot -3.50459 -0.968823
ltoes 5.75081
64
root 3.34994 17.5234 16.688 -101.804 -17.0389 -163.822
lowerback 35.6407 5.9382 3.16119
upperback 9.06454 6.59681 -2.80322
thorax -7.17724 2.6372 -6.96348
lowerneck -8.43979 -2.89676 0.783689
upperneck -4.90611 -4.72778 -9.74347
head -0.378091 -2.70415 -3.37937
rclavicle 5.64548e-014 -8.38871e-014
rhumerus 38.6347 0.633082 -68.3591
rradius 98.4936
rwrist 1.64932
rhand -32.3249 1.24691
rfingers 7.12502
rthumb -5.56243 -28.6601
lclavicle 5.64548e-014 -8.38871e-014
lhumerus 62.5349 9.29234 63.4395
lradius 69.6939
lwrist 3.43693
lhand -36.5859 -2.6851
lfingers 7.12502
lthumb -9.67509 27.0727
rfemur -34.1372 -28.5085 37.9129
rtibia 80.8745
rfoot 11.4435 8.19824
rtoes -34.9143
lfemur -80.8095 -3.90496 8.57631
ltibia 37.0369
lfoot -0.00907869 -0.611441
ltoes 3.7673
65
root 3.31373 17.6341 16.128 -99.3454 -18.1821 -164.508
lowerback 34.9904 5.89621 2.96444
upperback 8.91953 6.59301 -2.77711
thorax -7.12742 2.67761 -6.80664
lowerneck -8.37222 -3.07146 0.694201
upperneck -4.83823 -4.96528 -9.90205
head -0.384614 -2.82656 -3.42063
rclavicle 1.19271e-014 3.37934e-014
rhumerus 39.3578 -0.226859 -67.199
rradius 97.8779
rwrist 2.22385
rhand -33.2523 1.17992
rfingers 7.12502
rthumb -6.45779 -28.7016
lclavicle 1.19271e-014 3.37934e-014
lhumerus 65.2797 9.21097 63.578
lradius 68.3865
lwrist 2.46985
lhand -36.9162 -3.35527
lfingers 7.12502
lthumb -9.99382 26.3875
rfemur -34.6018 -28.2335 37.8542
rtibia 82.7804
rfoot 10.8478 9.16539
rtoes -36.9263
lfemur -80.5545 -3.71289 9.88923
ltibia 34.6126
lfoot 3.19355 0.423514
ltoes 1.66246
66
root 3.27598 17.7266 15.5672 -96.8698 -19.22 -165.255
lowerback 34.342 5.83278 2.7286
upperback 8.76208 6.54344 -2.79225
thorax -7.09277 2.69499 -6.6573
lowerneck -8.34831 -3.22799 0.598003
upperneck -4.72632 -5.16917 -10.0317
head -0.366622 -2.93299 -3.45178
rclavicle -2.14687e-014 -3.53837e-014
rhumerus 40.0021 -1.05266 -66.0626
rradius 97.2189
rwrist 2.78208
rhand -34.222 1.0904
rfingers 7.12502
rthumb -7.39384 -28.7604
lclavicle -2.14687e-014 -3.53837e-014
lhumerus 67.9234 9.12219 63.7108
lradius 67.1605
lwrist 1.47814
lhand -37.1136 -4.09117
lfingers 7.12502
lthumb -10.1843 25.6423
rfemur -34.8934 -27.7331 37.6264
rtibia 84.4228
rfoot 10.3004 9.9789
rtoes -38.5421
lfemur -80.4551 -3.4683 10.905
ltibia 32.7622
lfoot 5.75704 1.90481
ltoes -0.360171
67
root 3.23605 17.8006 15.0061 -94.4302 -20.1623 -166.052
lowerback 33.7444 5.74606 2.47826
upperback 8.6109 6.4496 -2.83977
thorax -7.06874 2.68859 -6.52138
lowerneck -8.34753 -3.36727 0.492242
upperneck -4.61607 -5.34589 -10.1318
head -0.342507 -3.02549 -3.47116
rclavicle 9.54166e-015 -6.59965e-014
rhumerus 40.6131 -1.86035 -64.9436
rradius 96.5096
rwrist 3.36105
rhand -35.1729 1.02128
rfingers 7.12502
rthumb -8.31165 -28.7952
lclavicle 9.54166e-015 -6.59965e-014
lhumerus 70.4879 9.01753 63.8469
lradius 66.0114
lwrist 0.543616
lhand -37.1771 -4.77055
lfingers 7.12502
lthumb -10.2455 24.9599
rfemur -34.9753 -27.048 37.238
rtibia 85.7917
rfoot 9.85055 10.5863
rtoes -39.721
lfemur -80.4731 -3.07947 11.3053
ltibia 31.6077
lfoot 7.54966 3.38961
ltoes -2.19912
68
root 3.19324 17.8565 14.4445 -92.0691 -21.0181 -166.891
lowerback 33.2638 5.61659 2.24578
upperback 8.45931 6.29563 -2.92589
thorax -7.08638 2.64903 -6.42228
lowerneck -8.36439 -3.48385 0.383793
upperneck -4.5053 -5.48823 -10.2112
head -0.312378 -3.10032 -3.48291
rclavicle -4.05521e-014 1.66979e-014
rhumerus 41.2071 -2.6267 -63.8692
rradius 95.7502
rwrist 4.01106
rhand -36.0699 1.01484
rfingers 7.12502
rthumb -9.17723 -28.7655
lclavicle -4.05521e-014 1.66979e-014
lhumerus 72.9617 8.90088 63.95
lradius 64.9172
lwrist -0.264501
lhand -37.1496 -5.30991
lfingers 7.12502
lthumb -10.219 24.4219
rfemur -34.8314 -26.2039 36.7041
rtibia 86.8828
rfoot 9.53921 10.9328
rtoes -40.4073
lfemur -80.5703 -2.44979 10.7699
ltibia 31.2152
lfoot 8.61521 4.36762
ltoes -4.01459
69
root 3.14735 17.8947 13.8826 -89.8411 -21.7883 -167.759
lowerback 32.96 5.46038 2.02396
upperback 8.31974 6.09614 -3.03144
thorax -7.15747 2.58157 -6.34408
lowerneck -8.40364 -3.57496 0.282096
upperneck -4.39015 -5.59399 -10.2946
head -0.274976 -3.15729 -3.49767
rclavicle -3.33958e-014 1.51076e-014
rhumerus 41.8095 -3.373 -62.82
rradius 94.9405
rwrist 4.76988
rhand -36.8578 1.10351
rfingers 7.12502
rthumb -9.93742 -28.6419
lclavicle -3.33958e-014 1.51076e-014
lhumerus 75.346 8.74466 64.0436
lradius 63.8703
lwrist -0.92802
lhand -37.0935 -5.63395
lfingers 7.12502
lthumb -10.1648 24.1005
rfemur -34.4284 -25.2407 36.0285
rtibia 87.6984
rfoot 9.37706 11.0109
rtoes -40.629
lfemur -80.6908 -1.58002 9.25127
ltibia 31.5773
lfoot 9.11099 4.58377
ltoes -5.7103
70
root 3.09829 17.9154 13.3217 -87.7595 -22.5106 -168.651
lowerback 32.8464 5.27135 1.85319
upperback 8.1929 5.85716 -3.1434
thorax -7.28507 2.48898 -6.29691
lowerneck -8.45332 -3.63706 0.187889
upperneck -4.27269 -5.65864 -10.3881
head -0.232963 -3.19365 -3.51722
rclavicle -5.88403e-014 -1.74931e-014
rhumerus 42.4303 -4.09728 -61.7915
rradius 94.0845
rwrist 5.62983
rhand -37.5056 1.33033
rfingers 7.12502
rthumb -10.5624 -28.3843
lclavicle -5.88403e-014 -1.74931e-014
lhumerus 77.6319 8.53805 64.1216
lradius 62.8598
lwrist -1.44065
lhand -37.0649 -5.74203
lfingers 7.12502
lthumb -10.1372 23.9938
rfemur -33.7844 -24.1843 35.2812
rtibia 88.2501
rfoot 9.34113 10.8165
rtoes -40.4304
lfemur -80.8111 -0.572842 7.09831
ltibia 32.6174
lfoot 9.20127 4.08224
ltoes -7.09217
71
root 3.04623 17.9188 12.7638 -85.8086 -23.1977 -169.567
lowerback 32.921 5.04491 1.74132
upperback 8.0664 5.57803 -3.25796
thorax -7.48308 2.37118 -6.28066
lowerneck -8.47989 -3.66686 0.0892811
upperneck -4.17676 -5.67905 -10.4817
head -0.198996 -3.20569 -3.53426
rclavicle -1.43125e-014 -8.74653e-015
rhumerus 43.0672 -4.7828 -60.7839
rradius 93.1969
rwrist 6.57976
rhand -37.9996 1.7116
rfingers 7.12502
rthumb -11.0389 -27.9781
lclavicle -1.43125e-014 -8.74653e-015
lhumerus 79.7914 8.27236 64.1783
lradius 61.8788
lwrist -1.83231
lhand -37.0881 -5.65575
lfingers 7.12502
lthumb -10.1596 24.0789
rfemur -32.9572 -23.0634 34.5144
rtibia 88.5658
rfoot 9.38246 10.3709
rtoes -39.8619
lfemur -80.9128 0.41685 4.82195
ltibia 34.217
lfoot 9.03 3.12561
ltoes -8.25917
72
root 2.99169 17.9052 12.2099 -83.9689 -23.8504 -170.5
lowerback 33.1471 4.79108 1.67843
upperback 7.93991 5.27108 -3.36795
thorax -7.7387 2.23533 -6.28329
lowerneck -8.4644 -3.67138 -0.0343661
upperneck -4.10737 -5.6641 -10.564
head -0.17765 -3.19677 -3.54027
rclavicle -5.80451e-014 -1.35174e-014
rhumerus 43.7119 -5.42568 -59.7776
rradius 92.2879
rwrist 7.59763
rhand -38.3434 2.22624
rfingers 7.12502
rthumb -11.3704 -27.4455
lclavicle -5.80451e-014 -1.35174e-014
lhumerus 81.7963 7.9333 64.2232
lradius 60.9431
lwrist -2.14925
lhand -37.1421 -5.41759
lfingers 7.12502
lthumb -10.2118 24.3146
rfemur -32.0017 -21.9021 33.765
rtibia 88.6749
rfoot 9.45218 9.69371
rtoes -38.9597
lfemur -80.9601 1.27624 2.80808
ltibia 36.2435
lfoot 8.77463 1.936
ltoes -9.22693
73
root 2.9354 17.8751 11.6608 -82.203 -24.4717 -171.449
lowerback 33.4775 4.51053 1.6595
upperback 7.80591 4.93955 -3.47321
thorax -8.04233 2.0843 -6.29957
lowerneck -8.40717 -3.65076 -0.202861
upperneck -4.05344 -5.61076 -10.6238
head -0.164323 -3.16507 -3.52781
rclavicle -7.15625e-014 -8.74653e-015
rhumerus 44.3522 -6.00263 -58.7727
rradius 91.3804
rwrist 8.6402
rhand -38.5368 2.8294
rfingers 7.12502
rthumb -11.557 -26.832
lclavicle -7.15625e-014 -8.74653e-015
lhumerus 83.6184 7.52052 64.2452
lradius 60.0556
lwrist -2.44539
lhand -37.1793 -5.06555
lfingers 7.12502
lthumb -10.2476 24.6648
rfemur -30.9924 -20.7403 33.0754
rtibia 88.6152
rfoot 9.51023 8.80931
rtoes -37.7755
lfemur -80.9454 1.98372 1.19829
ltibia 38.5739
lfoot 8.59717 0.456729
ltoes -10.0485
